<?xml version="1.0" encoding="UTF-8"?>
<svg version="1.1" xmlns="http://www.w3.org/2000/svg" width="225" height="225">
<path d="M0 0 C74.25 0 148.5 0 225 0 C225 74.25 225 148.5 225 225 C150.75 225 76.5 225 0 225 C0 150.75 0 76.5 0 0 Z " fill="#010101" transform="translate(0,0)"/>
<path d="M0 0 C2.75 -0.375 2.75 -0.375 6 0 C8.1875 2.75 8.1875 2.75 10 6 C10.74636719 6.928125 10.74636719 6.928125 11.5078125 7.875 C13.20341019 10.28967315 13.90390168 12.41412035 14.6875 15.25 C14.93886719 16.14203125 15.19023438 17.0340625 15.44921875 17.953125 C15.63097656 18.62859375 15.81273437 19.3040625 16 20 C16.58007812 19.855625 17.16015625 19.71125 17.7578125 19.5625 C22.26659675 18.49110572 26.33054247 17.76054064 31 18 C30.505 16.515 30.505 16.515 30 15 C30.66 15 31.32 15 32 15 C32.66 15.99 33.32 16.98 34 18 C32.88449178 14.13862539 31.97526761 11.70478873 29 9 C29 8.34 29 7.68 29 7 C30.65 6.67 32.3 6.34 34 6 C36.23737047 11.40697863 37 13.8964808 37 20 C29.08 21.65 21.16 23.3 13 25 C15.124375 24.67 17.24875 24.34 19.4375 24 C25.04829326 23.19113437 30.3418 22.80488966 36 23 C36 23.33 36 23.66 36 24 C34.12612523 24.3396019 32.25083303 24.67138691 30.375 25 C29.33085938 25.185625 28.28671875 25.37125 27.2109375 25.5625 C24.09425135 25.98715797 21.14069188 26.07545206 18 26 C18.02320313 27.10859375 18.04640625 28.2171875 18.0703125 29.359375 C18.08907577 30.82290992 18.10727537 32.28645214 18.125 33.75 C18.14175781 34.47960937 18.15851563 35.20921875 18.17578125 35.9609375 C18.24033942 43.06233639 18.24033942 43.06233639 16 46 C14.515 46.495 14.515 46.495 13 47 C13.66 47.66 14.32 48.32 15 49 C14 50 14 50 11.25 50.375 C6.88830316 49.87172729 5.76137323 48.34271496 3 45 C1.58783377 43.03584697 0.28782704 41.0509838 -1 39 C-1.66 39.66 -2.32 40.32 -3 41 C-2.6814823 43.10820797 -2.6814823 43.10820797 -2 45 C-4.2477975 42.94766315 -5.0022242 41.99332739 -6 39 C-6.99 39.99 -7.98 40.98 -9 42 C-11.09782787 39.90217213 -11.6509396 38.6200793 -12.625 35.875 C-12.88539062 35.15054688 -13.14578125 34.42609375 -13.4140625 33.6796875 C-13.60742188 33.12539062 -13.80078125 32.57109375 -14 32 C-14.99 32.495 -14.99 32.495 -16 33 C-16.38133299 31.0085944 -16.71325582 29.00720923 -17 27 C-16.67 26.67 -16.34 26.34 -16 26 C-15.71372691 22.9964046 -15.55134245 19.99259893 -15.37890625 16.98046875 C-15.01831092 14.14403332 -14.56997372 12.36902844 -13 10 C-11.66666667 9.66666667 -10.33333333 9.33333333 -9 9 C-8.690625 8.34 -8.38125 7.68 -8.0625 7 C-7.711875 6.34 -7.36125 5.68 -7 5 C-4.5 4.5 -4.5 4.5 -2 4 C-0.63979849 2.03241727 -0.63979849 2.03241727 0 0 Z " fill="#040404" transform="translate(67,69)"/>
<path d="M0 0 C6.15234375 2.734375 6.15234375 2.734375 8 4 C8.59765625 6.07421875 8.59765625 6.07421875 9 8 C10.65204456 8.70211894 12.31923769 9.36971413 14 10 C15.09506492 13.28519475 15.09960608 15.73663415 15.0625 19.1875 C15.05347656 20.27417969 15.04445312 21.36085938 15.03515625 22.48046875 C15.02355469 23.31191406 15.01195312 24.14335938 15 25 C15.66 25 16.32 25 17 25 C16.67 27.64 16.34 30.28 16 33 C15.01 32.505 15.01 32.505 14 32 C13.75765625 32.66386719 13.5153125 33.32773438 13.265625 34.01171875 C9.56636272 43.75785208 9.56636272 43.75785208 6 47 C3.375 47.1875 3.375 47.1875 1 47 C0.34 47.66 -0.32 48.32 -1 49 C-4.0390625 49.1953125 -4.0390625 49.1953125 -7.625 49.125 C-9.40777344 49.09792969 -9.40777344 49.09792969 -11.2265625 49.0703125 C-12.59941406 49.03550781 -12.59941406 49.03550781 -14 49 C-14.33 48.34 -14.66 47.68 -15 47 C-14.01 46.505 -14.01 46.505 -13 46 C-13.99 45.67 -14.98 45.34 -16 45 C-18.7654186 41.37382197 -18.22469092 37.09038938 -18.125 32.75 C-18.11597656 32.00492188 -18.10695312 31.25984375 -18.09765625 30.4921875 C-18.07418358 28.66131941 -18.03831525 26.83061762 -18 25 C-18.99 24.67 -19.98 24.34 -21 24 C-18.36 24 -15.72 24 -13 24 C-15.64 23.01 -18.28 22.02 -21 21 C-21 20.01 -21 19.02 -21 18 C-19.35 18.33 -17.7 18.66 -16 19 C-15.82984375 18.41992188 -15.6596875 17.83984375 -15.484375 17.2421875 C-13.95163743 12.30155469 -12.46801521 7.94968399 -9 4 C-5.25 2.625 -5.25 2.625 -2 2 C0.29013653 5.4352048 0.17842973 6.985331 0 11 C0.99 11 1.98 11 3 11 C2.01 7.37 1.02 3.74 0 0 Z " fill="#1E1E1E" transform="translate(158,70)"/>
<path d="M0 0 C2.31 0 4.62 0 7 0 C7.68707555 2.49064888 8 4.37886292 8 7 C8.66 5.02 9.32 3.04 10 1 C12.75 1 12.75 1 16 2 C17.30886964 3.926587 18.17133573 5.83499526 19.04296875 7.9921875 C19.88669575 10.07363884 19.88669575 10.07363884 21.5859375 11.49609375 C23.42474185 13.45172821 23.43280301 14.53369983 23.4375 17.1875 C23.22741331 22.16493841 22.12261739 26.06781514 19 30 C14.13674502 34.03808175 9.40437959 37.17128863 2.9375 37.0625 C-0.07904528 37.01461833 -2.77101306 36.97397876 -5.75 37.3125 C-10.22822522 36.88190142 -11.92648987 35.21321514 -15 32 C-16.375 28.6875 -16.375 28.6875 -17 26 C-13.93211003 23.78430169 -11.75664576 22.93865034 -7.96484375 23.24609375 C-4.95897766 23.76558193 -1.98125543 24.35552954 1 25 C1.33 25 1.66 25 2 25 C2.020625 23.700625 2.04125 22.40125 2.0625 21.0625 C2.07410156 20.33160156 2.08570312 19.60070312 2.09765625 18.84765625 C2.20561184 16.98267859 2.20561184 16.98267859 1 16 C0.76321284 13.30764224 0.57801975 10.63501844 0.4375 7.9375 C0.39431641 7.17888672 0.35113281 6.42027344 0.30664062 5.63867188 C0.20026367 3.75934562 0.09960066 1.87969756 0 0 Z " fill="#F2F2F2" transform="translate(113,72)"/>
<path d="M0 0 C0.33 0.66 0.66 1.32 1 2 C0.67 2.99 0.34 3.98 0 5 C-0.42802326 12.09722283 -0.10757954 18.8389101 1.48828125 25.765625 C2.18904899 28.82546582 2.59420525 31.88890689 3 35 C2.01 35.495 2.01 35.495 1 36 C2.30340145 39.91020436 3.66811401 42.50108551 7 45 C10.167832 45.33448259 10.167832 45.33448259 13 45 C12.67 45.66 12.34 46.32 12 47 C9.3125 47.3125 9.3125 47.3125 6 47 C2.13950392 43.87483651 -0.38730679 40.16095586 -3 36 C-3.66 36.66 -4.32 37.32 -5 38 C-4.6814823 40.10820797 -4.6814823 40.10820797 -4 42 C-6.2477975 39.94766315 -7.0022242 38.99332739 -8 36 C-8.99 36.99 -9.98 37.98 -11 39 C-13.09782787 36.90217213 -13.6509396 35.6200793 -14.625 32.875 C-14.88539062 32.15054688 -15.14578125 31.42609375 -15.4140625 30.6796875 C-15.60742188 30.12539062 -15.80078125 29.57109375 -16 29 C-16.66 29.33 -17.32 29.66 -18 30 C-18.38133299 28.0085944 -18.71325582 26.00720923 -19 24 C-18.67 23.67 -18.34 23.34 -18 23 C-17.71372691 19.9964046 -17.55134245 16.99259893 -17.37890625 13.98046875 C-17.01831092 11.14403332 -16.56997372 9.36902844 -15 7 C-13.66666667 6.66666667 -12.33333333 6.33333333 -11 6 C-10.690625 5.34 -10.38125 4.68 -10.0625 4 C-9.711875 3.34 -9.36125 2.68 -9 2 C-6.375 1.25 -6.375 1.25 -4 1 C-4.33 3.64 -4.66 6.28 -5 9 C-4.01 9 -3.02 9 -2 9 C-1.855625 7.700625 -1.71125 6.40125 -1.5625 5.0625 C-1.125 1.125 -1.125 1.125 0 0 Z " fill="#E1E1E1" transform="translate(69,72)"/>
<path d="M0 0 C6.15234375 2.734375 6.15234375 2.734375 8 4 C8.59765625 6.07421875 8.59765625 6.07421875 9 8 C10.65204456 8.70211894 12.31923769 9.36971413 14 10 C15.09506492 13.28519475 15.09960608 15.73663415 15.0625 19.1875 C15.05347656 20.27417969 15.04445312 21.36085938 15.03515625 22.48046875 C15.02355469 23.31191406 15.01195312 24.14335938 15 25 C15.66 25 16.32 25 17 25 C16.67 27.64 16.34 30.28 16 33 C15.34 32.67 14.68 32.34 14 32 C13.73445313 32.71027344 13.46890625 33.42054687 13.1953125 34.15234375 C12.84210938 35.07144531 12.48890625 35.99054688 12.125 36.9375 C11.77695313 37.85402344 11.42890625 38.77054688 11.0703125 39.71484375 C10 42 10 42 8 43 C7.02601683 38.59759605 7.08256846 35.67915273 8.375 31.375 C10.0537988 25.25773314 10.675001 19.32067016 11 13 C11.66 13 12.32 13 13 13 C12.01 12.01 11.02 11.02 10 10 C10.04640625 10.83660156 10.0928125 11.67320313 10.140625 12.53515625 C10.43380522 21.99021841 9.2017295 30.07254986 6 39 C5.34 39.66 4.68 40.32 4 41 C4 40.34 4 39.68 4 39 C3.34 39 2.68 39 2 39 C2.71825289 32.97504376 3.60087869 26.99057867 4.5625 21 C4.70107422 20.12988281 4.83964844 19.25976562 4.98242188 18.36328125 C5.32042852 16.24199817 5.66004584 14.12097184 6 12 C6.66 12 7.32 12 8 12 C7.39816251 9.97954558 6.72693904 7.97888961 6 6 C5.34 5.67 4.68 5.34 4 5 C4.165 5.639375 4.33 6.27875 4.5 6.9375 C5.70994292 14.34840037 4.82852735 21.18240655 3.125 28.4375 C2.95097656 29.23865234 2.77695313 30.03980469 2.59765625 30.86523438 C1.26175709 36.73824291 1.26175709 36.73824291 -1 39 C-2.32 38.34 -3.64 37.68 -5 37 C-4.86722656 36.34773438 -4.73445312 35.69546875 -4.59765625 35.0234375 C-4.42105469 34.14945313 -4.24445313 33.27546875 -4.0625 32.375 C-3.88847656 31.51648438 -3.71445313 30.65796875 -3.53515625 29.7734375 C-3.35855469 28.85820313 -3.18195313 27.94296875 -3 27 C-2.72349609 25.56720703 -2.72349609 25.56720703 -2.44140625 24.10546875 C-1.95446485 20.67964212 -1.8674711 17.39702819 -1.875 13.9375 C-1.87242187 12.75027344 -1.86984375 11.56304687 -1.8671875 10.33984375 C-1.98307335 7.42565555 -2.32613823 4.82914983 -3 2 C-1.5 3.125 -1.5 3.125 0 5 C0.1875 8.1875 0.1875 8.1875 0 11 C0.99 11 1.98 11 3 11 C2.01 7.37 1.02 3.74 0 0 Z " fill="#B5B5B5" transform="translate(158,70)"/>
<path d="M0 0 C13.38073932 -0.36827723 13.38073932 -0.36827723 15.91796875 1.140625 C17.45824733 3.7874575 17.46985889 5.88948053 17.5 8.9375 C17.5309375 9.97777344 17.561875 11.01804688 17.59375 12.08984375 C17 15 17 15 14.89453125 17.36328125 C11.37594664 19.35287228 9.20017396 19.41212824 5.1875 19.25 C4.02605469 19.21390625 2.86460938 19.1778125 1.66796875 19.140625 C0.78753906 19.09421875 -0.09289062 19.0478125 -1 19 C-1 17.35 -1 15.7 -1 14 C-0.34 14 0.32 14 1 14 C0.67 9.38 0.34 4.76 0 0 Z " fill="#EEEEEE" transform="translate(67,122)"/>
<path d="M0 0 C2.97 0 5.94 0 9 0 C10.32 2.31 11.64 4.62 13 7 C13.33 6.01 13.66 5.02 14 4 C13.34 4 12.68 4 12 4 C12 2.68 12 1.36 12 0 C14.64 0 17.28 0 20 0 C19.67 6.27 19.34 12.54 19 19 C17.02 19 15.04 19 13 19 C11.3203125 17.25 11.3203125 17.25 10.125 15 C9.71507813 14.2575 9.30515625 13.515 8.8828125 12.75 C8.59148437 12.1725 8.30015625 11.595 8 11 C7.67 11.99 7.34 12.98 7 14 C7.66 14 8.32 14 9 14 C9 15.32 9 16.64 9 18 C6.03 18 3.06 18 0 18 C0 16.68 0 15.36 0 14 C0.66 14 1.32 14 2 14 C2 10.7 2 7.4 2 4 C1.34 4 0.68 4 0 4 C0 2.68 0 1.36 0 0 Z " fill="#F2F2F2" transform="translate(105,122)"/>
<path d="M0 0 C2.4377963 -0.05397335 4.87439685 -0.09365616 7.3125 -0.125 C8.00279297 -0.14175781 8.69308594 -0.15851563 9.40429688 -0.17578125 C13.17135396 -0.21217794 14.78431704 -0.14378864 18 2 C18.3125 5.5 18.3125 5.5 18 9 C17.34 9.66 16.68 10.32 16 11 C16.99 12.485 16.99 12.485 18 14 C18 15.32 18 16.64 18 18 C15.75 18.375 15.75 18.375 13 18 C10.6875 15 10.6875 15 9 12 C9 13.98 9 15.96 9 18 C6.03 18 3.06 18 0 18 C0 16.68 0 15.36 0 14 C0.66 14 1.32 14 2 14 C2 10.7 2 7.4 2 4 C1.34 4 0.68 4 0 4 C0 2.68 0 1.36 0 0 Z " fill="#EDEDED" transform="translate(161,122)"/>
<path d="M0 0 C3.63 0 7.26 0 11 0 C14.42857143 9.57142857 14.42857143 9.57142857 14 14 C14.99 14 15.98 14 17 14 C17 15.65 17 17.3 17 19 C13.7 19 10.4 19 7 19 C7.33 16.69 7.66 14.38 8 12 C6.68 12 5.36 12 4 12 C4.33 14.31 4.66 16.62 5 19 C2.36 19 -0.28 19 -3 19 C-3 17.35 -3 15.7 -3 14 C-2.34 14 -1.68 14 -1 14 C-0.83081732 12.41693353 -0.66476064 10.83353281 -0.5 9.25 C-0.4071875 8.36828125 -0.314375 7.4865625 -0.21875 6.578125 C0.05636313 3.76695165 0.05636313 3.76695165 0 0 Z " fill="#E9E9E9" transform="translate(30,122)"/>
<path d="M0 0 C3.63 0 7.26 0 11 0 C11.50471197 1.76949612 12.00360685 3.54065223 12.5 5.3125 C12.7784375 6.29863281 13.056875 7.28476563 13.34375 8.30078125 C14 11 14 11 14 14 C14.66 14 15.32 14 16 14 C16 15.32 16 16.64 16 18 C13.03 18 10.06 18 7 18 C7.33 16.02 7.66 14.04 8 12 C6.35 12 4.7 12 3 12 C3 12.66 3 13.32 3 14 C3.66 14 4.32 14 5 14 C5 15.65 5 17.3 5 19 C2.03 19 -0.94 19 -4 19 C-4 17.35 -4 15.7 -4 14 C-3.34 13.67 -2.68 13.34 -2 13 C-1.30862927 11.01924593 -1.30862927 11.01924593 -0.875 8.6875 C-0.70742187 7.90761719 -0.53984375 7.12773437 -0.3671875 6.32421875 C0.10403188 3.73367445 0.10403188 3.73367445 0 0 Z " fill="#ECECEC" transform="translate(130,122)"/>
<path d="M0 0 C5.28 0 10.56 0 16 0 C16 1.98 16 3.96 16 6 C12.97580475 5.41196203 9.98241547 4.77321882 7 4 C7 4.99 7 5.98 7 7 C8.32 7 9.64 7 11 7 C11 7.99 11 8.98 11 10 C9.68 10 8.36 10 7 10 C7 11.32 7 12.64 7 14 C7.7425 13.67 8.485 13.34 9.25 13 C12 12 12 12 16 12 C16 14.31 16 16.62 16 19 C10.39 19 4.78 19 -1 19 C-1 17.35 -1 15.7 -1 14 C-0.34 14 0.32 14 1 14 C0.67 9.38 0.34 4.76 0 0 Z " fill="#EEEEEE" transform="translate(87,122)"/>
<path d="M0 0 C5.18720934 4.20584541 6.47275469 8.60543632 8 15 C8.58007812 14.855625 9.16015625 14.71125 9.7578125 14.5625 C14.26659675 13.49110572 18.33054247 12.76054064 23 13 C22.67 12.01 22.34 11.02 22 10 C22.66 10 23.32 10 24 10 C24.99 11.485 24.99 11.485 26 13 C24.88449178 9.13862539 23.97526761 6.70478873 21 4 C21 3.34 21 2.68 21 2 C22.65 1.67 24.3 1.34 26 1 C28.23737047 6.40697863 29 8.8964808 29 15 C21.08 16.65 13.16 18.3 5 20 C7.124375 19.67 9.24875 19.34 11.4375 19 C17.04829326 18.19113437 22.3418 17.80488966 28 18 C28 18.33 28 18.66 28 19 C26.12612523 19.3396019 24.25083303 19.67138691 22.375 20 C21.33085938 20.185625 20.28671875 20.37125 19.2109375 20.5625 C16 21 16 21 10 21 C10 26.28 10 31.56 10 37 C9.67 37 9.34 37 9 37 C8.505 29.575 8.505 29.575 8 22 C6.68 22 5.36 22 4 22 C4 23.32 4 24.64 4 26 C4.66 26.33 5.32 26.66 6 27 C5.01 27 4.02 27 3 27 C0.33833147 22.45298292 -0.40454244 19.25905171 0 14 C0.33 13.34 0.66 12.68 1 12 C1.66 12.33 2.32 12.66 3 13 C3 13.99 3 14.98 3 16 C3.99 16 4.98 16 6 16 C5.37879354 14.08210046 4.75288109 12.16572478 4.125 10.25 C3.77695313 9.18265625 3.42890625 8.1153125 3.0703125 7.015625 C2.1932578 4.54450739 1.24073795 2.3026308 0 0 Z " fill="#DCDCDC" transform="translate(75,74)"/>
<path d="M0 0 C2.31 0 4.62 0 7 0 C7.144375 0.598125 7.28875 1.19625 7.4375 1.8125 C8.47794589 5.85867847 9.83742428 9.42056433 12 13 C15.05039221 14.90206849 15.05039221 14.90206849 18 16 C17.34 16.66 16.68 17.32 16 18 C15.35232207 20.57061311 15.35232207 20.57061311 15 23 C12.36 22.67 9.72 22.34 7 22 C6.34 23.32 5.68 24.64 5 26 C4.01 25.67 3.02 25.34 2 25 C2.03255208 22.94921875 2.06510417 20.8984375 2.09765625 18.84765625 C2.20561184 16.98267859 2.20561184 16.98267859 1 16 C0.76321284 13.30764224 0.57801975 10.63501844 0.4375 7.9375 C0.39431641 7.17888672 0.35113281 6.42027344 0.30664062 5.63867188 C0.20026367 3.75934562 0.09960066 1.87969756 0 0 Z " fill="#373737" transform="translate(113,72)"/>
<path d="M0 0 C5.28 0 10.56 0 16 0 C16 1.98 16 3.96 16 6 C14.68 6 13.36 6 12 6 C12 5.34 12 4.68 12 4 C10.35 4 8.7 4 7 4 C7 4.99 7 5.98 7 7 C8.65 7 10.3 7 12 7 C12 8.32 12 9.64 12 11 C10.68 11 9.36 11 8 11 C8 11.66 8 12.32 8 13 C10.64 12.67 13.28 12.34 16 12 C16 13.98 16 15.96 16 18 C10.72 18 5.44 18 0 18 C0 16.68 0 15.36 0 14 C0.66 14 1.32 14 2 14 C2 10.7 2 7.4 2 4 C1.34 4 0.68 4 0 4 C0 2.68 0 1.36 0 0 Z " fill="#F6F6F6" transform="translate(181,122)"/>
<path d="M0 0 C0.99 0 1.98 0 3 0 C3.11593506 0.65073486 3.23187012 1.30146973 3.35131836 1.97192383 C3.87773979 4.91919982 4.40757995 7.86585114 4.9375 10.8125 C5.11990234 11.83666016 5.30230469 12.86082031 5.49023438 13.91601562 C5.66748047 14.89892578 5.84472656 15.88183594 6.02734375 16.89453125 C6.18968506 17.80050049 6.35202637 18.70646973 6.51928711 19.63989258 C6.97824776 22.13561463 6.97824776 22.13561463 8 25 C7.34 25.66 6.68 26.32 6 27 C6.3185177 29.10820797 6.3185177 29.10820797 7 31 C4.7522025 28.94766315 3.9977758 27.99332739 3 25 C2.01 25.99 1.02 26.98 0 28 C-4.7523907 23.2476093 -5.16511914 17.73750194 -5.20654297 11.36157227 C-5.17867504 7.90559134 -5.10599118 4.45452751 -5 1 C-4.01 1 -3.02 1 -2 1 C-1.67 4.63 -1.34 8.26 -1 12 C-0.67 8.04 -0.34 4.08 0 0 Z " fill="#F3F3F3" transform="translate(58,83)"/>
<path d="M0 0 C0.99 0.33 1.98 0.66 3 1 C3.33 2.98 3.66 4.96 4 7 C3.34 7 2.68 7 2 7 C2.061875 8.010625 2.12375 9.02125 2.1875 10.0625 C2.21626116 18.07248252 0.0060665 26.28735599 -2 34 C-1.01 34 -0.02 34 1 34 C3.95505295 24.18647533 5.68323629 15.27898247 6 5 C6.99 5.33 7.98 5.66 9 6 C9 6.66 9 7.32 9 8 C8.34 8 7.68 8 7 8 C7.05220703 9.09054688 7.05220703 9.09054688 7.10546875 10.203125 C7.34291734 19.0226439 5.77905419 26.66283742 3 35 C3.66 35.33 4.32 35.66 5 36 C4.3125 38.4375 4.3125 38.4375 3 41 C0.5625 41.6875 0.5625 41.6875 -2 42 C-2.99 42.66 -3.98 43.32 -5 44 C-7.6875 44.125 -7.6875 44.125 -10 44 C-8.74387705 40.70050653 -7.29249885 37.69696058 -5.5625 34.625 C-0.10958286 23.7514315 0.49653318 11.93518633 0 0 Z " fill="#4B4B4B" transform="translate(162,75)"/>
<path d="M0 0 C3.3 0 6.6 0 10 0 C10 1.32 10 2.64 10 4 C9.34 4 8.68 4 8 4 C8 7.3 8 10.6 8 14 C9.32 13.67 10.64 13.34 12 13 C12.33 12.34 12.66 11.68 13 11 C14.32 11 15.64 11 17 11 C17 13.31 17 15.62 17 18 C11.39 18 5.78 18 0 18 C0 16.68 0 15.36 0 14 C0.66 14 1.32 14 2 14 C2 10.7 2 7.4 2 4 C1.34 4 0.68 4 0 4 C0 2.68 0 1.36 0 0 Z " fill="#F5F5F5" transform="translate(48,122)"/>
<path d="M0 0 C2.97 0 5.94 0 9 0 C9 1.32 9 2.64 9 4 C8.34 4 7.68 4 7 4 C7 7.3 7 10.6 7 14 C7.66 14 8.32 14 9 14 C9 15.65 9 17.3 9 19 C5.7 19 2.4 19 -1 19 C-1 17.35 -1 15.7 -1 14 C-0.34 14 0.32 14 1 14 C0.67 9.38 0.34 4.76 0 0 Z " fill="#ECECEC" transform="translate(149,122)"/>
<path d="M0 0 C1.32 0 2.64 0 4 0 C4.42148368 8.66383125 3.69732043 16.71007025 1 25 C0.34 25.66 -0.32 26.32 -1 27 C-2.32 26.34 -3.64 25.68 -5 25 C-3.33333333 16.66666667 -1.66666667 8.33333333 0 0 Z " fill="#F4F4F4" transform="translate(158,82)"/>
<path d="M0 0 C1.2065625 0.0309375 1.2065625 0.0309375 2.4375 0.0625 C4.1416678 5.22196865 4.65975605 9.5050333 4.5625 15 C4.55347656 15.68384766 4.54445313 16.36769531 4.53515625 17.07226562 C4.51188958 18.73583287 4.47603167 20.39921631 4.4375 22.0625 C2.7875 22.3925 1.1375 22.7225 -0.5625 23.0625 C-0.541875 22.299375 -0.52125 21.53625 -0.5 20.75 C-0.43307159 17.96064214 -0.43307159 17.96064214 -1.5625 15.0625 C-1.96953427 12.69277995 -2.34062485 10.3167704 -2.6875 7.9375 C-2.87570313 6.67679687 -3.06390625 5.41609375 -3.2578125 4.1171875 C-3.35835938 3.10914062 -3.45890625 2.10109375 -3.5625 1.0625 C-2.5625 0.0625 -2.5625 0.0625 0 0 Z " fill="#EFEFEF" transform="translate(107.5625,72.9375)"/>
<path d="M0 0 C0 2.97 0 5.94 0 9 C-4.62 9 -9.24 9 -14 9 C-14 6.69 -14 4.38 -14 2 C-11.85430749 1.66576139 -9.70844207 1.33263257 -7.5625 1 C-6.36753906 0.814375 -5.17257813 0.62875 -3.94140625 0.4375 C-1 0 -1 0 0 0 Z " fill="#FAFAFA" transform="translate(123,111)"/>
<path d="M0 0 C0.99 0 1.98 0 3 0 C3.4642314 10.16150945 3.05109759 18.45098425 -1 28 C-1.33 27.34 -1.66 26.68 -2 26 C-2.66 26 -3.32 26 -4 26 C-3.30710259 20.13391708 -2.42848067 14.32260413 -1.4375 8.5 C-1.29892578 7.67757812 -1.16035156 6.85515625 -1.01757812 6.0078125 C-0.67988697 4.00495459 -0.34015815 2.00244041 0 0 Z " fill="#F7F7F7" transform="translate(164,83)"/>
<path d="M0 0 C0.99 0 1.98 0 3 0 C3.33 4.95 3.66 9.9 4 15 C4.66 15 5.32 15 6 15 C7.17571451 18.67410785 7.07366746 22.16929183 7 26 C6.01 26.33 5.02 26.66 4 27 C-0.84730223 18.19262496 -0.40658197 9.73537941 0 0 Z " fill="#E4E4E4" transform="translate(53,84)"/>
<path d="M0 0 C2.31 0 4.62 0 7 0 C8.4049404 3.89060419 7.69513239 7.23092362 7.0625 11.25 C6.86785156 12.51328125 6.67320313 13.7765625 6.47265625 15.078125 C6.23869141 16.52445313 6.23869141 16.52445313 6 18 C3.525 17.01 3.525 17.01 1 16 C0.67 10.72 0.34 5.44 0 0 Z " fill="#F2F2F2" transform="translate(113,72)"/>
<path d="M0 0 C0.99 0.33 1.98 0.66 3 1 C3.81945163 20.41645111 3.81945163 20.41645111 -1 29 C-1.66 29.33 -2.32 29.66 -3 30 C-3.97398317 25.59759605 -3.91743154 22.67915273 -2.625 18.375 C-0.9462012 12.25773314 -0.324999 6.32067016 0 0 Z " fill="#F0F0F0" transform="translate(169,83)"/>
<path d="M0 0 C2 2 2 2 3 4 C4.32 3.01 5.64 2.02 7 1 C7.81928886 2.24556092 8.63015186 3.49666635 9.4375 4.75 C10.11619141 5.79414062 10.11619141 5.79414062 10.80859375 6.859375 C11.9608009 8.92957014 12.54676982 10.68696324 13 13 C9.28400809 13.20086443 8.22791555 13.1519437 5 11 C4.154375 10.855625 3.30875 10.71125 2.4375 10.5625 C0 10 0 10 -2 7 C-2 6.01 -2 5.02 -2 4 C-1.34 4 -0.68 4 0 4 C0 2.68 0 1.36 0 0 Z " fill="#636363" transform="translate(60,106)"/>
<path d="M0 0 C0.33 1.32 0.66 2.64 1 4 C1.66 4 2.32 4 3 4 C3 7.3 3 10.6 3 14 C2.34 14 1.68 14 1 14 C1 15.32 1 16.64 1 18 C6.28 18 11.56 18 17 18 C17 16.02 17 14.04 17 12 C17.33 12 17.66 12 18 12 C18 14.31 18 16.62 18 19 C10.08 19 2.16 19 -6 19 C-6 18.67 -6 18.34 -6 18 C-4.35 18 -2.7 18 -1 18 C-1.99 15.36 -2.98 12.72 -4 10 C-3.01 9.67 -2.02 9.34 -1 9 C-0.67 6.03 -0.34 3.06 0 0 Z " fill="#343434" transform="translate(180,122)"/>
<path d="M0 0 C0.66 0.33 1.32 0.66 2 1 C2.77772405 3.33317216 3.42415568 5.61435923 4 8 C4.90621094 7.855625 5.81242187 7.71125 6.74609375 7.5625 C13.58077705 6.52102445 20.08795238 5.76165353 27 6 C27 6.33 27 6.66 27 7 C25.12612523 7.3396019 23.25083303 7.67138691 21.375 8 C20.33085938 8.185625 19.28671875 8.37125 18.2109375 8.5625 C15 9 15 9 9 9 C9 14.28 9 19.56 9 25 C8.67 25 8.34 25 8 25 C7.67 20.05 7.34 15.1 7 10 C5.68 10 4.36 10 3 10 C3 11.32 3 12.64 3 14 C3.66 14.33 4.32 14.66 5 15 C4.01 15 3.02 15 2 15 C-0.66166853 10.45298292 -1.40454244 7.25905171 -1 2 C-0.67 1.34 -0.34 0.68 0 0 Z " fill="#B2B2B2" transform="translate(76,86)"/>
<path d="M0 0 C2.31 0.33 4.62 0.66 7 1 C6.49697411 5.40147657 4.97554199 7.75395419 2 11 C-0.70879335 12.35439668 -3.00933268 12.06501451 -6 12 C-6.33 11.34 -6.66 10.68 -7 10 C-5.7625 9.38125 -5.7625 9.38125 -4.5 8.75 C-3.675 8.1725 -2.85 7.595 -2 7 C-2 5.68 -2 4.36 -2 3 C-1.34 2.01 -0.68 1.02 0 0 Z " fill="#636363" transform="translate(150,107)"/>
<path d="M0 0 C1.31223496 3.93670488 0.24296256 6.12488144 -1 10 C-0.01 10 0.98 10 2 10 C2 11.65 2 13.3 2 15 C0.35 15.33 -1.3 15.66 -3 16 C-3 21.61 -3 27.22 -3 33 C-5 31 -5 31 -5.1953125 27.3046875 C-5.182009 25.82799892 -5.15814835 24.35137642 -5.125 22.875 C-5.11597656 22.12089844 -5.10695312 21.36679688 -5.09765625 20.58984375 C-5.0740687 18.72642746 -5.03819719 16.86317407 -5 15 C-5.99 14.67 -6.98 14.34 -8 14 C-5.36 14 -2.72 14 0 14 C-2.64 13.01 -5.28 12.02 -8 11 C-8 10.01 -8 9.02 -8 8 C-5.525 8.495 -5.525 8.495 -3 9 C-2.01 6.03 -1.02 3.06 0 0 Z " fill="#CECECE" transform="translate(145,80)"/>
<path d="M0 0 C0.94875 0.04125 1.8975 0.0825 2.875 0.125 C3.535 1.445 4.195 2.765 4.875 4.125 C3.885 4.785 2.895 5.445 1.875 6.125 C1.08511855 8.07885067 1.08511855 8.07885067 0.6875 10.25 C0.419375 11.52875 0.15125 12.8075 -0.125 14.125 C-0.455 14.125 -0.785 14.125 -1.125 14.125 C-1.455 12.145 -1.785 10.165 -2.125 8.125 C-2.455 9.445 -2.785 10.765 -3.125 12.125 C-4.115 12.125 -5.105 12.125 -6.125 12.125 C-6.01101335 10.49919034 -5.88344341 8.87432843 -5.75 7.25 C-5.68039063 6.34507813 -5.61078125 5.44015625 -5.5390625 4.5078125 C-4.87650935 0.69500665 -3.80858004 0.1523432 0 0 Z " fill="#777777" transform="translate(70.125,68.875)"/>
<path d="M0 0 C0.5775 0.598125 1.155 1.19625 1.75 1.8125 C5.31286114 5.60658437 5.31286114 5.60658437 10 7 C10.66 6.34 11.32 5.68 12 5 C11.6875 6.9375 11.6875 6.9375 11 9 C10.01 9.33 9.02 9.66 8 10 C8 10.66 8 11.32 8 12 C5.14458787 11.91601729 3.43760967 11.39043615 1.296875 9.48046875 C-1.83700878 6.00244352 -1.83700878 6.00244352 -3 4 C-2.67 3.01 -2.34 2.02 -2 1 C-1.34 0.67 -0.68 0.34 0 0 Z " fill="#949494" transform="translate(72,106)"/>
<path d="M0 0 C0 6.93 0 13.86 0 21 C-1.99390001 17.01219998 -2.22686963 15.52852428 -2.125 11.25 C-2.10695313 10.26515625 -2.08890625 9.2803125 -2.0703125 8.265625 C-2.04710937 7.51796875 -2.02390625 6.7703125 -2 6 C-2.99 6 -3.98 6 -5 6 C-4.98839844 6.79664062 -4.97679687 7.59328125 -4.96484375 8.4140625 C-4.87521968 18.93848858 -4.87521968 18.93848858 -6 24 C-6.66 23.34 -7.32 22.68 -8 22 C-7.87004765 19.14695515 -7.62493557 16.44639016 -7.25 13.625 C-7.16234375 12.85671875 -7.0746875 12.0884375 -6.984375 11.296875 C-6.07849559 4.02467642 -6.07849559 4.02467642 -4 1 C-2 0 -2 0 0 0 Z " fill="#A5A5A5" transform="translate(58,78)"/>
<path d="M0 0 C5.18720934 4.20584541 6.47275469 8.60543632 8 15 C10.64 14.67 13.28 14.34 16 14 C16 14.99 16 15.98 16 17 C11.8803623 18.29243536 8.33168317 19.26252625 4 19 C4 18.01 4 17.02 4 16 C4.66 16 5.32 16 6 16 C5.37879354 14.08210046 4.75288109 12.16572478 4.125 10.25 C3.77695313 9.18265625 3.42890625 8.1153125 3.0703125 7.015625 C2.1932578 4.54450739 1.24073795 2.3026308 0 0 Z " fill="#D2D2D2" transform="translate(75,74)"/>
<path d="M0 0 C0.99 0.33 1.98 0.66 3 1 C3 1.66 3 2.32 3 3 C2.34 3 1.68 3 1 3 C1.03480469 3.72703125 1.06960937 4.4540625 1.10546875 5.203125 C1.34291734 14.0226439 -0.22094581 21.66283742 -3 30 C-2.34 30.33 -1.68 30.66 -1 31 C-2.98 33.475 -2.98 33.475 -5 36 C-5.99 35.67 -6.98 35.34 -8 35 C-7.66226563 34.23816406 -7.32453125 33.47632813 -6.9765625 32.69140625 C-2.17519735 21.57610715 -0.65332709 12.08655108 0 0 Z " fill="#4E4E4E" transform="translate(168,80)"/>
<path d="M0 0 C0.99 0.33 1.98 0.66 3 1 C2.96519531 2.918125 2.96519531 2.918125 2.9296875 4.875 C2.91091467 6.58332745 2.89271611 8.29166127 2.875 10 C2.85824219 10.83917969 2.84148438 11.67835937 2.82421875 12.54296875 C2.79210283 16.68592248 2.96455786 20.36826556 4.0703125 24.375 C4.95885519 27.83956984 5.00843843 28.79558322 4 32 C1.30202781 23.68549452 0.36900907 15.71624869 0 7 C-0.66 7 -1.32 7 -2 7 C-1.125 1.125 -1.125 1.125 0 0 Z " fill="#595959" transform="translate(61,75)"/>
<path d="M0 0 C0.99 0.33 1.98 0.66 3 1 C3.33 2.98 3.66 4.96 4 7 C3.34 7 2.68 7 2 7 C2.061875 8.010625 2.12375 9.02125 2.1875 10.0625 C2.20122901 17.70955921 0.86530652 27.34495051 -3 34 C-2.52724562 29.1936638 -1.92643357 24.53974272 -0.9375 19.8125 C0.32660971 13.22040195 0.17570681 6.68662011 0 0 Z " fill="#505050" transform="translate(162,75)"/>
<path d="M0 0 C2.875 0.3125 2.875 0.3125 6 1 C8 4 8 4 8 8 C6 7 4 6 2 5 C2.33 6.32 2.66 7.64 3 9 C2.01 8.67 1.02 8.34 0 8 C-1.125 2.25 -1.125 2.25 0 0 Z " fill="#7C7C7C" transform="translate(123,73)"/>
<path d="M0 0 C0.4125 0.556875 0.825 1.11375 1.25 1.6875 C2.52030395 3.36611594 3.83985123 5.00782147 5.1875 6.625 C7 9 7 9 7 11 C3.46491897 10.70540991 2.23796556 10.25118587 -0.25 7.625 C-2 5 -2 5 -3 2 C-2.01 1.34 -1.02 0.68 0 0 Z " fill="#070707" transform="translate(66,107)"/>
<path d="M0 0 C1.98 0 3.96 0 6 0 C6.50833591 1.24663331 7.00631145 2.49749387 7.5 3.75 C7.7784375 4.44609375 8.056875 5.1421875 8.34375 5.859375 C9 8 9 8 9 12 C8.01 12 7.02 12 6 12 C5.773125 10.72125 5.54625 9.4425 5.3125 8.125 C4.83899916 5.93067868 4.83899916 5.93067868 4 4 C1.51686936 2.40311361 1.51686936 2.40311361 -1 2 C-0.67 1.34 -0.34 0.68 0 0 Z " fill="#363636" transform="translate(152,69)"/>
<path d="M0 0 C4.16138263 -0.08159574 7.9472484 0.01751476 12 1 C12 2.65 12 4.3 12 6 C11.67 4.68 11.34 3.36 11 2 C8.36 2 5.72 2 3 2 C3 3.32 3 4.64 3 6 C3.66 6 4.32 6 5 6 C5 7.65 5 9.3 5 11 C1.7089159 7.39042389 0.45336079 4.87362847 0 0 Z " fill="#3D3D3D" transform="translate(114,120)"/>
<path d="M0 0 C0.33 0 0.66 0 1 0 C1 4.95 1 9.9 1 15 C-0.65 15.33 -2.3 15.66 -4 16 C-4 13.33333333 -4 10.66666667 -4 8 C-2.02 8.495 -2.02 8.495 0 9 C0 6.03 0 3.06 0 0 Z " fill="#BEBEBE" transform="translate(111,80)"/>
<path d="M0 0 C1.32 0 2.64 0 4 0 C4 3.3 4 6.6 4 10 C2.68 10 1.36 10 0 10 C0 6.7 0 3.4 0 0 Z " fill="#131313" transform="translate(74,126)"/>
<path d="M0 0 C3.3 0 6.6 0 10 0 C9.67 0.66 9.34 1.32 9 2 C7.68 2 6.36 2 5 2 C5 7.61 5 13.22 5 19 C3 17 3 17 2.8046875 13.3046875 C2.817991 11.82799892 2.84185165 10.35137642 2.875 8.875 C2.88402344 8.12089844 2.89304688 7.36679688 2.90234375 6.58984375 C2.9259313 4.72642746 2.96180281 2.86317407 3 1 C2.01 0.67 1.02 0.34 0 0 Z " fill="#AFAFAF" transform="translate(137,94)"/>
<path d="M0 0 C0.66 0 1.32 0 2 0 C6 6.75 6 6.75 6 9 C7.32 9.66 8.64 10.32 10 11 C7.14458787 10.91601729 5.43760967 10.39043615 3.296875 8.48046875 C0.16299122 5.00244352 0.16299122 5.00244352 -1 3 C-0.67 2.01 -0.34 1.02 0 0 Z " fill="#0D0D0D" transform="translate(70,107)"/>
<path d="M0 0 C1.32 0.99 2.64 1.98 4 3 C4.33 2.01 4.66 1.02 5 0 C5.66 0 6.32 0 7 0 C7 2.64 7 5.28 7 8 C3.125 6.25 3.125 6.25 2 4 C1.34 5.32 0.68 6.64 0 8 C0 5.36 0 2.72 0 0 Z " fill="#BDBDBD" transform="translate(84,145)"/>
<path d="M0 0 C0.99 0 1.98 0 3 0 C3 1.98 3 3.96 3 6 C6.63 6 10.26 6 14 6 C14 6.33 14 6.66 14 7 C9.38 7 4.76 7 0 7 C0 4.69 0 2.38 0 0 Z " fill="#CDCDCD" transform="translate(109,113)"/>
<path d="M0 0 C0.99 0.33 1.98 0.66 3 1 C2.2884375 2.0828125 2.2884375 2.0828125 1.5625 3.1875 C0.05847097 5.89475226 -0.56599182 7.96194275 -1 11 C-1.99 11 -2.98 11 -4 11 C-3.38461538 3.49230769 -3.38461538 3.49230769 -1.4375 1 C-0.963125 0.67 -0.48875 0.34 0 0 Z " fill="#0A0A0A" transform="translate(68,70)"/>
<path d="M0 0 C0.33 2.31 0.66 4.62 1 7 C-1.86697492 5.71480435 -3.97607712 4.42870746 -6 2 C-6 1.34 -6 0.68 -6 0 C-3.50907189 -1.24546405 -2.58919267 -0.7767578 0 0 Z " fill="#DDDDDD" transform="translate(102,76)"/>
<path d="M0 0 C0.99 0 1.98 0 3 0 C3.33 2.64 3.66 5.28 4 8 C2.68 8 1.36 8 0 8 C0 5.36 0 2.72 0 0 Z " fill="#E2E2E2" transform="translate(104,112)"/>
<path d="M0 0 C0.99 0.33 1.98 0.66 3 1 C3 6.94 3 12.88 3 19 C0.94720641 14.89441282 0.7783058 13.19793315 0.875 8.75 C0.89304688 7.67234375 0.91109375 6.5946875 0.9296875 5.484375 C0.95289063 4.66453125 0.97609375 3.8446875 1 3 C0.34 3 -0.32 3 -1 3 C-0.67 2.01 -0.34 1.02 0 0 Z " fill="#252525" transform="translate(55,80)"/>
<path d="M0 0 C1.98 0 3.96 0 6 0 C4.68 0.33 3.36 0.66 2 1 C2 1.66 2 2.32 2 3 C2.99 3.33 3.98 3.66 5 4 C4.01 4 3.02 4 2 4 C2 4.99 2 5.98 2 7 C3.32 7.33 4.64 7.66 6 8 C4.02 8 2.04 8 0 8 C0 5.36 0 2.72 0 0 Z " fill="#C4C4C4" transform="translate(95,145)"/>
<path d="M0 0 C0.99 0.495 0.99 0.495 2 1 C2 1.99 2 2.98 2 4 C2.99 4.33 3.98 4.66 5 5 C4.34 6.32 3.68 7.64 3 9 C2.01 9 1.02 9 0 9 C0 6.03 0 3.06 0 0 Z " fill="#BDBDBD" transform="translate(121,83)"/>
<path d="M0 0 C3.96 1.98 3.96 1.98 8 4 C6.68 5.65 5.36 7.3 4 9 C3.01 8.67 2.02 8.34 1 8 C1.33 6.68 1.66 5.36 2 4 C1.34 3.67 0.68 3.34 0 3 C0 2.01 0 1.02 0 0 Z " fill="#0A0A0A" transform="translate(123,84)"/>
<path d="M0 0 C1.32 0.33 2.64 0.66 4 1 C4 2.98 4 4.96 4 7 C2.35 7 0.7 7 -1 7 C-1.66 5.35 -2.32 3.7 -3 2 C-2.34 2 -1.68 2 -1 2 C-0.01 3.485 -0.01 3.485 1 5 C0.67 3.35 0.34 1.7 0 0 Z " fill="#858585" transform="translate(100,82)"/>
<path d="M0 0 C1.65 0 3.3 0 5 0 C3.68 0.33 2.36 0.66 1 1 C1 1.66 1 2.32 1 3 C2.32 3.33 3.64 3.66 5 4 C4.67 5.32 4.34 6.64 4 8 C2.68 7.67 1.36 7.34 0 7 C0.99 7 1.98 7 3 7 C3 6.34 3 5.68 3 5 C1.68 4.67 0.36 4.34 -1 4 C-0.67 2.68 -0.34 1.36 0 0 Z " fill="#BDBDBD" transform="translate(116,145)"/>
<path d="M0 0 C3.34373475 0.55728913 6.03312999 1.35173889 9 3 C7.68 3 6.36 3 5 3 C5 4.32 5 5.64 5 7 C3.35 7 1.7 7 0 7 C1.32 6.67 2.64 6.34 4 6 C4 5.01 4 4.02 4 3 C2.68 3 1.36 3 0 3 C0 2.01 0 1.02 0 0 Z " fill="#4A4A4A" transform="translate(94,126)"/>
<path d="M0 0 C0.33 0.99 0.66 1.98 1 3 C1.66 3.33 2.32 3.66 3 4 C1.68 5.65 0.36 7.3 -1 9 C-1.99 8.67 -2.98 8.34 -4 8 C-2.68 5.36 -1.36 2.72 0 0 Z " fill="#090909" transform="translate(164,107)"/>
<path d="M0 0 C0.99 0.33 1.98 0.66 3 1 C2.34 3.31 1.68 5.62 1 8 C0.01 7.67 -0.98 7.34 -2 7 C-1.125 1.125 -1.125 1.125 0 0 Z " fill="#030303" transform="translate(61,75)"/>
<path d="M0 0 C0.99 0.33 1.98 0.66 3 1 C3.33 2.98 3.66 4.96 4 7 C3.01 7.33 2.02 7.66 1 8 C0.67 5.36 0.34 2.72 0 0 Z " fill="#020202" transform="translate(162,75)"/>
<path d="M0 0 C0.99 0 1.98 0 3 0 C2.43628586 3.26954202 1.50037734 4.82575883 -1 7 C-1.66 6.67 -2.32 6.34 -3 6 C-1.125 1.125 -1.125 1.125 0 0 Z " fill="#818181" transform="translate(150,107)"/>
<path d="M0 0 C1.32 0 2.64 0 4 0 C3.67 1.98 3.34 3.96 3 6 C2.01 6 1.02 6 0 6 C0 4.02 0 2.04 0 0 Z " fill="#505050" transform="translate(164,146)"/>
<path d="M0 0 C2.475 0.495 2.475 0.495 5 1 C4.67 2.65 4.34 4.3 4 6 C3.01 5.67 2.02 5.34 1 5 C0.67 3.35 0.34 1.7 0 0 Z " fill="#0A0A0A" transform="translate(78,95)"/>
<path d="M0 0 C1.32 0.66 2.64 1.32 4 2 C3.01 2 2.02 2 1 2 C1 3.98 1 5.96 1 8 C0.01 7.67 -0.98 7.34 -2 7 C-2 5.35 -2 3.7 -2 2 C-1.34 2 -0.68 2 0 2 C0 1.34 0 0.68 0 0 Z " fill="#2B2B2B" transform="translate(114,88)"/>
<path d="M0 0 C2.375 0.3125 2.375 0.3125 5 1 C5.66 1.99 6.32 2.98 7 4 C6.67 4.99 6.34 5.98 6 7 C5.566875 6.525625 5.13375 6.05125 4.6875 5.5625 C2.97690387 3.76313043 2.97690387 3.76313043 0 3 C0 2.01 0 1.02 0 0 Z " fill="#EFEFEF" transform="translate(124,73)"/>
<path d="M0 0 C0.99 0 1.98 0 3 0 C3.33 1.65 3.66 3.3 4 5 C2.68 5.33 1.36 5.66 0 6 C0 4.02 0 2.04 0 0 Z " fill="#EDEDED" transform="translate(115,90)"/>
<path d="M0 0 C2.97 0 5.94 0 9 0 C5.71299843 1.64350079 3.52069985 2.41321669 0 3 C0 2.01 0 1.02 0 0 Z " fill="#222222" transform="translate(94,133)"/>
<path d="M0 0 C0.99 0.33 1.98 0.66 3 1 C3 1.66 3 2.32 3 3 C2.34 3 1.68 3 1 3 C1 6.3 1 9.6 1 13 C0.67 13 0.34 13 0 13 C0 8.71 0 4.42 0 0 Z " fill="#010101" transform="translate(168,80)"/>
<path d="M0 0 C2 1.3125 2 1.3125 4 3 C4 3.99 4 4.98 4 6 C3.01 6 2.02 6 1 6 C0.34 4.35 -0.32 2.7 -1 1 C-0.67 0.67 -0.34 0.34 0 0 Z " fill="#CDCDCD" transform="translate(125,77)"/>
<path d="M0 0 C0.33 0.99 0.66 1.98 1 3 C0.34 3.66 -0.32 4.32 -1 5 C-1.99 5 -2.98 5 -4 5 C-4 3.68 -4 2.36 -4 1 C-2.68 0.67 -1.36 0.34 0 0 Z " fill="#000000" transform="translate(146,95)"/>
</svg>
